<svg xmlns="http://www.w3.org/2000/svg" xmlns:xlink="http://www.w3.org/1999/xlink" width="145" viewBox="0 0 108.75 149.249994" height="199" preserveAspectRatio="xMidYMid meet"><defs><clipPath id="24ffa4d977"><path d="M 0.148438 0 L 108.355469 0 L 108.355469 148.503906 L 0.148438 148.503906 Z M 0.148438 0 " clip-rule="nonzero"></path></clipPath><clipPath id="2044d7d2d6"><path d="M 0.148438 1 L 108 1 L 108 147 L 0.148438 147 Z M 0.148438 1 " clip-rule="nonzero"></path></clipPath><clipPath id="ed5091b5a3"><path d="M 6 17.421875 L 91 17.421875 L 91 100 L 6 100 Z M 6 17.421875 " clip-rule="nonzero"></path></clipPath><clipPath id="3fd2943c9f"><path d="M 75 102 L 91 102 L 91 115.929688 L 75 115.929688 Z M 75 102 " clip-rule="nonzero"></path></clipPath></defs><g clip-path="url(#24ffa4d977)"><path fill="#ffffff" d="M 0.148438 0 L 108.355469 0 L 108.355469 148.503906 L 0.148438 148.503906 Z M 0.148438 0 " fill-opacity="1" fill-rule="nonzero"></path></g><g clip-path="url(#2044d7d2d6)"><path fill="#f9a778" d="M 99.96875 1.5 C 96.964844 1.5 93.957031 1.832031 90.953125 2.167969 C 86.613281 2.5 82.273438 3.503906 78.9375 4.503906 C 75.929688 5.171875 72.257812 6.171875 68.585938 6.839844 C 67.25 7.175781 65.582031 7.507812 64.246094 7.507812 C 62.242188 7.84375 60.242188 8.175781 58.238281 8.511719 C 54.898438 9.179688 51.894531 10.515625 48.554688 11.847656 L 47.554688 12.183594 C 44.882812 13.183594 42.546875 14.1875 40.210938 15.855469 C 37.871094 17.523438 35.535156 19.527344 32.863281 22.199219 C 31.527344 23.199219 30.527344 24.535156 29.859375 25.535156 C 28.859375 26.871094 27.855469 28.207031 26.855469 29.210938 L 26.1875 30.210938 C 25.1875 31.546875 24.183594 33.214844 23.183594 34.550781 L 21.515625 36.886719 C 20.847656 37.890625 20.179688 38.558594 19.511719 39.558594 C 18.175781 41.5625 16.507812 43.230469 15.171875 45.234375 C 13.167969 47.90625 11.5 51.242188 9.828125 54.246094 C 8.160156 57.921875 6.824219 61.925781 5.824219 64.929688 C 4.820312 68.269531 4.152344 71.941406 3.484375 75.28125 C 3.152344 76.617188 2.816406 78.285156 2.816406 79.621094 C 2.484375 81.289062 2.152344 83.292969 1.816406 84.960938 C 1.148438 88.300781 0.816406 91.972656 0.480469 95.644531 C 0.148438 101.988281 0.816406 108.664062 2.484375 117.011719 C 3.152344 120.351562 4.152344 124.023438 4.820312 127.359375 L 5.15625 128.363281 C 6.15625 132.035156 6.824219 135.707031 7.824219 139.714844 C 8.160156 141.382812 9.828125 143.050781 11.164062 144.054688 C 11.5 144.054688 11.832031 144.386719 11.832031 144.386719 C 12.5 145.054688 13.167969 145.722656 13.835938 146.054688 L 14.167969 146.054688 C 15.171875 146.390625 15.839844 146.722656 17.171875 146.722656 L 17.507812 146.722656 C 18.84375 146.722656 19.84375 146.390625 21.179688 145.386719 C 21.515625 145.386719 21.847656 145.054688 22.179688 144.722656 C 22.515625 144.386719 22.847656 144.386719 22.847656 144.054688 C 23.183594 144.054688 23.515625 143.71875 23.515625 143.71875 C 24.183594 143.386719 24.519531 143.050781 25.1875 142.71875 C 26.1875 142.050781 26.855469 141.382812 27.855469 141.046875 C 28.523438 140.714844 29.191406 140.382812 30.195312 139.714844 C 31.195312 139.046875 32.53125 138.378906 33.53125 137.710938 C 34.867188 137.042969 35.871094 136.039062 36.871094 135.375 C 37.871094 134.707031 38.539062 134.039062 39.542969 133.371094 C 40.542969 132.703125 41.542969 132.035156 42.210938 131.367188 C 44.214844 130.03125 45.886719 128.695312 47.886719 127.695312 C 51.226562 125.691406 54.230469 123.019531 56.234375 121.019531 C 57.570312 120.015625 58.570312 118.679688 59.90625 117.679688 C 61.242188 116.675781 62.242188 115.34375 63.578125 114.339844 C 64.582031 113.671875 65.582031 112.671875 66.25 112.003906 C 67.917969 110.667969 69.589844 109 71.257812 107.328125 C 75.261719 103.324219 79.269531 98.984375 82.941406 94.644531 L 85.277344 91.972656 C 87.949219 88.96875 90.285156 85.964844 92.289062 83.292969 C 94.292969 80.621094 95.292969 77.617188 96.296875 74.945312 C 98.632812 68.601562 100.300781 61.925781 101.304688 55.582031 C 101.636719 53.246094 101.972656 51.242188 102.304688 48.90625 C 102.304688 47.90625 102.640625 46.570312 102.972656 45.566406 C 103.640625 42.230469 103.972656 38.890625 104.308594 35.21875 C 104.976562 28.542969 105.976562 21.195312 107.3125 14.1875 L 107.3125 13.519531 C 107.648438 11.847656 107.980469 10.515625 107.648438 8.84375 C 107.3125 7.175781 106.980469 4.839844 104.976562 3.167969 C 103.972656 2.5 102.640625 1.5 101.636719 1.5 C 101.304688 1.5 100.636719 1.5 99.96875 1.5 " fill-opacity="1" fill-rule="nonzero"></path></g><path fill="#000000" d="M 21.082031 62.699219 C 20.910156 62.699219 20.796875 62.644531 20.621094 62.585938 C 20.160156 62.296875 19.988281 61.722656 20.277344 61.261719 C 20.390625 61.085938 30.128906 43.921875 22.40625 33.207031 C 22.0625 32.746094 22.175781 32.171875 22.582031 31.882812 C 23.042969 31.535156 23.617188 31.652344 23.964844 32.054688 C 32.375 43.804688 22.351562 61.492188 21.945312 62.238281 C 21.773438 62.527344 21.429688 62.699219 21.082031 62.699219 Z M 21.082031 62.699219 " fill-opacity="1" fill-rule="evenodd"></path><path fill="#000000" d="M 24.308594 55.386719 C 24.195312 55.386719 24.078125 55.328125 23.964844 55.328125 C 16.761719 52.734375 12.613281 46.285156 13.59375 39.253906 C 14.054688 36.261719 15.035156 34.761719 16.015625 33.148438 C 16.476562 32.457031 16.9375 31.710938 17.394531 30.789062 C 19.007812 27.675781 19.296875 23.816406 19.296875 23.757812 C 19.296875 23.472656 19.46875 23.183594 19.757812 23.011719 C 20.046875 22.839844 20.390625 22.839844 20.679688 22.953125 C 27.363281 26.238281 32.257812 31.535156 33.699219 37.238281 C 34.851562 41.558594 33.988281 45.996094 31.164062 50.027344 C 30.128906 51.46875 27.996094 54.058594 24.65625 55.328125 C 24.539062 55.328125 24.425781 55.386719 24.308594 55.386719 Z M 21.027344 25.316406 C 20.796875 26.871094 20.277344 29.40625 19.125 31.710938 C 18.605469 32.6875 18.085938 33.496094 17.683594 34.1875 C 16.648438 35.742188 15.898438 36.953125 15.496094 39.542969 C 14.6875 45.476562 18.203125 51.007812 24.308594 53.367188 C 26.957031 52.273438 28.746094 50.144531 29.550781 48.933594 C 32.085938 45.304688 32.890625 41.558594 31.855469 37.699219 C 30.644531 32.917969 26.613281 28.367188 21.027344 25.316406 Z M 21.027344 25.316406 " fill-opacity="1" fill-rule="evenodd"></path><path fill="#000000" d="M 33.699219 60.511719 C 29.839844 60.511719 26.09375 58.554688 23.503906 54.980469 L 25.058594 53.828125 C 28.167969 58.148438 33.179688 59.707031 37.617188 57.6875 C 39.460938 56.882812 40.207031 56.019531 41.1875 54.925781 C 41.648438 54.40625 42.109375 53.828125 42.800781 53.253906 C 44.183594 51.929688 45.910156 51.007812 47.0625 50.429688 C 42.742188 46.167969 37.328125 44.265625 33.007812 45.476562 C 32.488281 45.59375 31.96875 45.304688 31.796875 44.785156 C 31.683594 44.324219 31.96875 43.75 32.488281 43.632812 C 37.847656 42.078125 44.527344 44.671875 49.425781 50.144531 C 49.65625 50.375 49.714844 50.71875 49.65625 51.007812 C 49.539062 51.296875 49.308594 51.582031 49.023438 51.699219 C 49.023438 51.699219 46.140625 52.734375 44.125 54.636719 C 43.492188 55.210938 43.089844 55.730469 42.628906 56.191406 C 41.589844 57.34375 40.613281 58.4375 38.363281 59.476562 C 36.867188 60.167969 35.253906 60.511719 33.699219 60.511719 Z M 33.699219 60.511719 " fill-opacity="1" fill-rule="evenodd"></path><path fill="#000000" d="M 27.9375 53.195312 C 27.59375 53.195312 27.246094 52.964844 27.074219 52.675781 C 26.84375 52.160156 27.015625 51.582031 27.476562 51.351562 C 32.660156 48.644531 37.441406 48.070312 41.648438 49.566406 C 42.109375 49.738281 42.398438 50.316406 42.222656 50.835938 C 42.050781 51.296875 41.476562 51.582031 40.957031 51.410156 C 37.269531 50.085938 33.066406 50.605469 28.339844 53.082031 C 28.226562 53.136719 28.054688 53.195312 27.9375 53.195312 Z M 27.9375 53.195312 " fill-opacity="1" fill-rule="evenodd"></path><g clip-path="url(#ed5091b5a3)"><path fill="#000000" d="M 70.21875 99.335938 L 16.648438 99.335938 C 11.175781 99.335938 6.738281 94.902344 6.738281 89.429688 L 6.738281 27.332031 C 6.738281 21.917969 11.175781 17.421875 16.648438 17.421875 L 81.050781 17.421875 C 86.464844 17.421875 90.957031 21.917969 90.957031 27.332031 L 90.957031 72.667969 C 90.957031 73.242188 90.496094 73.644531 89.980469 73.644531 C 89.460938 73.644531 89 73.242188 89 72.667969 L 89 27.332031 C 89 22.953125 85.429688 19.382812 81.050781 19.382812 L 16.648438 19.382812 C 12.210938 19.382812 8.640625 22.953125 8.640625 27.332031 L 8.640625 89.429688 C 8.640625 93.808594 12.210938 97.4375 16.648438 97.4375 L 70.21875 97.4375 C 70.738281 97.4375 71.140625 97.839844 71.140625 98.359375 C 71.140625 98.875 70.738281 99.335938 70.21875 99.335938 Z M 70.21875 99.335938 " fill-opacity="1" fill-rule="evenodd"></path></g><path fill="#000000" d="M 83.066406 105.789062 C 82.261719 105.789062 81.453125 105.558594 80.761719 105.097656 C 80.011719 105.386719 79.207031 105.386719 78.398438 105.214844 C 77.652344 104.984375 76.902344 104.523438 76.382812 103.945312 C 75.578125 104.003906 74.769531 103.773438 74.078125 103.371094 C 73.390625 102.96875 72.8125 102.390625 72.46875 101.640625 C 71.660156 101.527344 70.910156 101.125 70.335938 100.546875 C 69.757812 99.972656 69.414062 99.222656 69.242188 98.472656 C 68.492188 98.070312 67.917969 97.550781 67.511719 96.804688 C 67.109375 96.113281 66.9375 95.304688 66.9375 94.5 C 66.359375 93.980469 65.898438 93.289062 65.726562 92.484375 C 65.496094 91.675781 65.554688 90.871094 65.785156 90.121094 C 65.324219 89.429688 65.09375 88.679688 65.09375 87.816406 C 65.09375 87.011719 65.324219 86.203125 65.785156 85.570312 C 65.554688 84.820312 65.496094 83.957031 65.726562 83.207031 C 65.898438 82.402344 66.359375 81.710938 66.9375 81.191406 C 66.9375 80.386719 67.109375 79.578125 67.511719 78.832031 C 67.917969 78.140625 68.492188 77.5625 69.242188 77.21875 C 69.414062 76.410156 69.757812 75.71875 70.335938 75.144531 C 70.910156 74.566406 71.660156 74.164062 72.46875 73.992188 C 72.8125 73.300781 73.390625 72.667969 74.078125 72.261719 C 74.769531 71.859375 75.578125 71.6875 76.382812 71.746094 C 76.902344 71.109375 77.652344 70.707031 78.398438 70.476562 C 79.207031 70.246094 80.011719 70.304688 80.761719 70.535156 C 82.144531 69.671875 83.988281 69.671875 85.3125 70.535156 C 86.121094 70.304688 86.925781 70.246094 87.734375 70.476562 C 88.480469 70.707031 89.230469 71.109375 89.75 71.746094 C 90.554688 71.6875 91.363281 71.859375 92.054688 72.261719 C 92.742188 72.667969 93.320312 73.300781 93.664062 73.992188 C 94.472656 74.164062 95.164062 74.566406 95.738281 75.144531 C 96.375 75.71875 96.71875 76.410156 96.890625 77.21875 C 97.640625 77.5625 98.214844 78.140625 98.621094 78.832031 C 99.023438 79.578125 99.195312 80.386719 99.136719 81.191406 C 99.773438 81.710938 100.234375 82.402344 100.40625 83.207031 C 100.636719 83.957031 100.578125 84.820312 100.347656 85.570312 C 100.808594 86.203125 101.039062 87.011719 101.039062 87.816406 C 101.039062 88.625 100.808594 89.429688 100.347656 90.121094 C 100.578125 90.871094 100.636719 91.675781 100.40625 92.484375 C 100.234375 93.289062 99.773438 93.980469 99.136719 94.5 C 99.195312 95.304688 99.023438 96.113281 98.621094 96.804688 C 98.214844 97.550781 97.640625 98.070312 96.890625 98.472656 C 96.71875 99.222656 96.375 99.972656 95.738281 100.546875 C 95.164062 101.125 94.472656 101.527344 93.664062 101.640625 C 93.320312 102.390625 92.742188 102.96875 92.054688 103.371094 C 91.363281 103.773438 90.554688 104.003906 89.75 103.945312 C 89.230469 104.523438 88.480469 104.984375 87.734375 105.214844 C 86.925781 105.386719 86.121094 105.386719 85.3125 105.097656 C 84.679688 105.558594 83.871094 105.789062 83.066406 105.789062 Z M 80.933594 103.023438 C 81.164062 103.023438 81.394531 103.140625 81.570312 103.3125 C 82.375 104.0625 83.757812 104.0625 84.5625 103.3125 C 84.851562 103.023438 85.253906 102.96875 85.660156 103.140625 C 86.121094 103.425781 86.695312 103.484375 87.214844 103.3125 C 87.734375 103.195312 88.191406 102.851562 88.480469 102.390625 C 88.710938 102.046875 89.113281 101.871094 89.519531 101.988281 C 90.035156 102.101562 90.613281 101.988281 91.074219 101.757812 C 91.59375 101.46875 91.9375 101.007812 92.109375 100.488281 C 92.226562 100.085938 92.570312 99.855469 92.972656 99.796875 C 93.492188 99.796875 94.011719 99.566406 94.414062 99.164062 C 94.816406 98.761719 95.046875 98.300781 95.046875 97.726562 C 95.046875 97.320312 95.335938 96.976562 95.738281 96.859375 C 96.257812 96.6875 96.660156 96.34375 96.949219 95.882812 C 97.238281 95.363281 97.292969 94.84375 97.179688 94.269531 C 97.121094 93.863281 97.292969 93.460938 97.640625 93.289062 C 98.101562 93 98.445312 92.539062 98.5625 91.964844 C 98.734375 91.445312 98.621094 90.871094 98.390625 90.410156 C 98.214844 90.0625 98.273438 89.601562 98.5625 89.3125 C 98.90625 88.910156 99.136719 88.394531 99.136719 87.816406 C 99.136719 87.296875 98.90625 86.78125 98.5625 86.375 C 98.273438 86.03125 98.214844 85.628906 98.390625 85.28125 C 98.621094 84.761719 98.734375 84.1875 98.5625 83.667969 C 98.445312 83.152344 98.101562 82.691406 97.640625 82.402344 C 97.292969 82.171875 97.121094 81.769531 97.179688 81.363281 C 97.292969 80.847656 97.238281 80.269531 96.949219 79.808594 C 96.660156 79.347656 96.257812 79.003906 95.738281 78.832031 C 95.335938 78.714844 95.046875 78.371094 95.046875 77.964844 C 95.046875 77.390625 94.816406 76.871094 94.414062 76.46875 C 94.011719 76.121094 93.492188 75.890625 92.972656 75.835938 C 92.570312 75.835938 92.226562 75.546875 92.109375 75.199219 C 91.9375 74.625 91.59375 74.222656 91.074219 73.933594 C 90.613281 73.644531 90.035156 73.589844 89.519531 73.703125 C 89.113281 73.761719 88.710938 73.589844 88.480469 73.300781 C 88.191406 72.78125 87.734375 72.492188 87.214844 72.320312 C 86.695312 72.207031 86.121094 72.261719 85.660156 72.492188 C 85.253906 72.667969 84.851562 72.609375 84.5625 72.378906 C 83.757812 71.628906 82.375 71.628906 81.570312 72.378906 C 81.28125 72.609375 80.878906 72.667969 80.472656 72.492188 C 80.011719 72.261719 79.4375 72.207031 78.917969 72.320312 C 78.398438 72.492188 77.941406 72.78125 77.652344 73.300781 C 77.421875 73.589844 77.019531 73.761719 76.613281 73.703125 C 76.097656 73.589844 75.519531 73.644531 75.058594 73.933594 C 74.539062 74.222656 74.195312 74.625 74.023438 75.199219 C 73.90625 75.546875 73.5625 75.835938 73.160156 75.835938 C 72.640625 75.890625 72.121094 76.121094 71.71875 76.46875 C 71.316406 76.871094 71.085938 77.390625 71.085938 77.964844 C 71.085938 78.371094 70.796875 78.714844 70.394531 78.832031 C 69.875 79.003906 69.414062 79.347656 69.183594 79.808594 C 68.894531 80.269531 68.78125 80.847656 68.953125 81.363281 C 69.011719 81.769531 68.839844 82.171875 68.492188 82.402344 C 68.03125 82.691406 67.6875 83.152344 67.570312 83.667969 C 67.398438 84.1875 67.457031 84.761719 67.742188 85.28125 C 67.917969 85.628906 67.859375 86.03125 67.570312 86.375 C 67.226562 86.78125 66.996094 87.296875 66.996094 87.816406 C 66.996094 88.394531 67.226562 88.910156 67.570312 89.3125 C 67.859375 89.601562 67.917969 90.0625 67.742188 90.410156 C 67.457031 90.871094 67.398438 91.445312 67.570312 91.964844 C 67.6875 92.539062 68.03125 93 68.492188 93.289062 C 68.839844 93.460938 69.011719 93.863281 68.953125 94.269531 C 68.78125 94.84375 68.894531 95.363281 69.183594 95.882812 C 69.414062 96.34375 69.875 96.6875 70.394531 96.859375 C 70.796875 96.976562 71.085938 97.320312 71.085938 97.726562 C 71.085938 98.300781 71.316406 98.820312 71.71875 99.164062 C 72.121094 99.566406 72.640625 99.796875 73.160156 99.796875 C 73.5625 99.855469 73.90625 100.085938 74.023438 100.488281 C 74.195312 101.007812 74.539062 101.46875 75.058594 101.757812 C 75.519531 101.988281 76.097656 102.101562 76.613281 101.988281 C 77.019531 101.871094 77.421875 102.046875 77.652344 102.390625 C 77.941406 102.851562 78.398438 103.195312 78.917969 103.3125 C 79.4375 103.484375 80.011719 103.425781 80.472656 103.140625 C 80.648438 103.082031 80.761719 103.023438 80.933594 103.023438 Z M 80.933594 103.023438 " fill-opacity="1" fill-rule="evenodd"></path><path fill="#000000" d="M 83.066406 99.855469 C 76.441406 99.855469 71.027344 94.441406 71.027344 87.816406 C 71.027344 81.191406 76.441406 75.835938 83.066406 75.835938 C 89.691406 75.835938 95.046875 81.191406 95.046875 87.816406 C 95.046875 94.441406 89.691406 99.855469 83.066406 99.855469 Z M 83.066406 77.734375 C 77.480469 77.734375 72.984375 82.285156 72.984375 87.816406 C 72.984375 93.40625 77.480469 97.898438 83.066406 97.898438 C 88.652344 97.898438 93.148438 93.40625 93.148438 87.816406 C 93.148438 82.285156 88.652344 77.734375 83.066406 77.734375 Z M 83.066406 77.734375 " fill-opacity="1" fill-rule="evenodd"></path><g clip-path="url(#3fd2943c9f)"><path fill="#000000" d="M 78.515625 115.699219 C 77.996094 115.699219 77.480469 115.582031 76.960938 115.351562 C 75.867188 114.777344 75.230469 113.679688 75.230469 112.414062 L 75.230469 102.96875 C 75.230469 102.449219 75.691406 102.046875 76.210938 102.046875 C 76.730469 102.046875 77.132812 102.449219 77.132812 102.96875 L 77.132812 112.414062 C 77.132812 112.933594 77.421875 113.394531 77.882812 113.625 C 78.34375 113.855469 78.859375 113.855469 79.265625 113.566406 L 82.546875 111.320312 C 82.835938 111.148438 83.296875 111.148438 83.585938 111.320312 L 86.8125 113.566406 C 87.273438 113.855469 87.789062 113.855469 88.25 113.625 C 88.710938 113.394531 89 112.933594 89 112.414062 L 89 102.96875 C 89 102.449219 89.402344 102.046875 89.921875 102.046875 C 90.441406 102.046875 90.902344 102.449219 90.902344 102.96875 L 90.902344 112.414062 C 90.902344 113.679688 90.210938 114.777344 89.113281 115.351562 C 88.019531 115.929688 86.753906 115.8125 85.773438 115.121094 L 83.066406 113.277344 L 80.359375 115.121094 C 79.78125 115.523438 79.148438 115.699219 78.515625 115.699219 Z M 78.515625 115.699219 " fill-opacity="1" fill-rule="evenodd"></path></g><path fill="#000000" d="M 58.699219 87.242188 L 37.269531 87.242188 C 36.75 87.242188 36.289062 86.78125 36.289062 86.261719 C 36.289062 85.742188 36.75 85.28125 37.269531 85.28125 L 58.699219 85.28125 C 59.21875 85.28125 59.621094 85.742188 59.621094 86.261719 C 59.621094 86.78125 59.21875 87.242188 58.699219 87.242188 Z M 33.007812 87.242188 L 24.425781 87.242188 C 23.847656 87.242188 23.445312 86.78125 23.445312 86.261719 C 23.445312 85.742188 23.847656 85.28125 24.425781 85.28125 L 33.007812 85.28125 C 33.527344 85.28125 33.988281 85.742188 33.988281 86.261719 C 33.988281 86.78125 33.527344 87.242188 33.007812 87.242188 Z M 33.007812 87.242188 " fill-opacity="1" fill-rule="evenodd"></path><path fill="#000000" d="M 61.578125 77.910156 L 53.859375 77.910156 C 53.34375 77.910156 52.882812 77.503906 52.882812 76.988281 C 52.882812 76.410156 53.34375 76.007812 53.859375 76.007812 L 61.578125 76.007812 C 62.097656 76.007812 62.558594 76.410156 62.558594 76.988281 C 62.558594 77.503906 62.097656 77.910156 61.578125 77.910156 Z M 48.5625 77.910156 L 24.425781 77.910156 C 23.847656 77.910156 23.445312 77.503906 23.445312 76.988281 C 23.445312 76.410156 23.847656 76.007812 24.425781 76.007812 L 48.5625 76.007812 C 49.078125 76.007812 49.484375 76.410156 49.484375 76.988281 C 49.484375 77.503906 49.078125 77.910156 48.5625 77.910156 Z M 48.5625 77.910156 " fill-opacity="1" fill-rule="evenodd"></path><path fill="#000000" d="M 63.191406 68.632812 L 36.578125 68.632812 C 36.058594 68.632812 35.65625 68.230469 35.65625 67.65625 C 35.65625 67.136719 36.058594 66.734375 36.578125 66.734375 L 63.191406 66.734375 C 63.710938 66.734375 64.171875 67.136719 64.171875 67.65625 C 64.171875 68.230469 63.710938 68.632812 63.191406 68.632812 Z M 31.566406 68.632812 L 24.425781 68.632812 C 23.847656 68.632812 23.445312 68.230469 23.445312 67.65625 C 23.445312 67.136719 23.847656 66.734375 24.425781 66.734375 L 31.566406 66.734375 C 32.085938 66.734375 32.488281 67.136719 32.488281 67.65625 C 32.488281 68.230469 32.085938 68.632812 31.566406 68.632812 Z M 31.566406 68.632812 " fill-opacity="1" fill-rule="evenodd"></path><path fill="#000000" d="M 73.273438 59.359375 L 69.527344 59.359375 C 69.011719 59.359375 68.550781 58.898438 68.550781 58.378906 C 68.550781 57.863281 69.011719 57.402344 69.527344 57.402344 L 73.273438 57.402344 C 73.792969 57.402344 74.253906 57.863281 74.253906 58.378906 C 74.253906 58.898438 73.792969 59.359375 73.273438 59.359375 Z M 64.976562 59.359375 L 58.46875 59.359375 C 57.949219 59.359375 57.546875 58.898438 57.546875 58.378906 C 57.546875 57.863281 57.949219 57.402344 58.46875 57.402344 L 64.976562 57.402344 C 65.554688 57.402344 65.957031 57.863281 65.957031 58.378906 C 65.957031 58.898438 65.554688 59.359375 64.976562 59.359375 Z M 64.976562 59.359375 " fill-opacity="1" fill-rule="evenodd"></path><path fill="#000000" d="M 73.273438 50.027344 L 65.554688 50.027344 C 64.976562 50.027344 64.574219 49.625 64.574219 49.105469 C 64.574219 48.585938 64.976562 48.125 65.554688 48.125 L 73.273438 48.125 C 73.792969 48.125 74.253906 48.585938 74.253906 49.105469 C 74.253906 49.625 73.792969 50.027344 73.273438 50.027344 Z M 61.40625 50.027344 L 58.46875 50.027344 C 57.949219 50.027344 57.546875 49.625 57.546875 49.105469 C 57.546875 48.585938 57.949219 48.125 58.46875 48.125 L 61.40625 48.125 C 61.925781 48.125 62.386719 48.585938 62.386719 49.105469 C 62.386719 49.625 61.925781 50.027344 61.40625 50.027344 Z M 61.40625 50.027344 " fill-opacity="1" fill-rule="evenodd"></path><path fill="#000000" d="M 73.273438 40.753906 L 65.382812 40.753906 C 64.863281 40.753906 64.460938 40.351562 64.460938 39.832031 C 64.460938 39.253906 64.863281 38.851562 65.382812 38.851562 L 73.273438 38.851562 C 73.792969 38.851562 74.253906 39.253906 74.253906 39.832031 C 74.253906 40.351562 73.792969 40.753906 73.273438 40.753906 Z M 60.886719 40.753906 L 45.738281 40.753906 C 45.21875 40.753906 44.816406 40.351562 44.816406 39.832031 C 44.816406 39.253906 45.21875 38.851562 45.738281 38.851562 L 60.886719 38.851562 C 61.40625 38.851562 61.867188 39.253906 61.867188 39.832031 C 61.867188 40.351562 61.40625 40.753906 60.886719 40.753906 Z M 60.886719 40.753906 " fill-opacity="1" fill-rule="evenodd"></path><path fill="#000000" d="M 73.273438 31.480469 L 50 31.480469 C 49.484375 31.480469 49.023438 31.019531 49.023438 30.5 C 49.023438 29.980469 49.484375 29.578125 50 29.578125 L 73.273438 29.578125 C 73.792969 29.578125 74.253906 29.980469 74.253906 30.5 C 74.253906 31.019531 73.792969 31.480469 73.273438 31.480469 Z M 46.429688 31.480469 L 38.824219 31.480469 C 38.308594 31.480469 37.902344 31.019531 37.902344 30.5 C 37.902344 29.980469 38.308594 29.578125 38.824219 29.578125 L 46.429688 29.578125 C 46.949219 29.578125 47.351562 29.980469 47.351562 30.5 C 47.351562 31.019531 46.949219 31.480469 46.429688 31.480469 Z M 46.429688 31.480469 " fill-opacity="1" fill-rule="evenodd"></path><path fill="#000000" d="M 83.066406 94.613281 C 79.320312 94.613281 76.328125 91.5625 76.328125 87.816406 C 76.328125 87.296875 76.730469 86.894531 77.25 86.894531 C 77.765625 86.894531 78.226562 87.296875 78.226562 87.816406 C 78.226562 90.523438 80.417969 92.65625 83.066406 92.65625 C 83.585938 92.65625 84.046875 93.117188 84.046875 93.636719 C 84.046875 94.152344 83.585938 94.613281 83.066406 94.613281 Z M 83.066406 94.613281 " fill-opacity="1" fill-rule="evenodd"></path></svg>